<svg width="24" height="24" viewBox="0 0 24 24" fill="none" xmlns="http://www.w3.org/2000/svg">
<mask id="path-1-inside-1_8_891" fill="white">
<path d="M12.4687 11.375V15.75C12.4687 15.8743 12.4193 15.9936 12.3314 16.0815C12.2435 16.1694 12.1242 16.2188 11.9999 16.2188C11.8756 16.2188 11.7564 16.1694 11.6685 16.0815C11.5806 15.9936 11.5312 15.8743 11.5312 15.75V11.375C11.5312 11.2507 11.5806 11.1315 11.6685 11.0436C11.7564 10.9556 11.8756 10.9063 11.9999 10.9063C12.1242 10.9063 12.2435 10.9556 12.3314 11.0436C12.4193 11.1315 12.4687 11.2507 12.4687 11.375ZM20.5843 9.64454L19.4999 17.7695C19.4649 18.0322 19.3358 18.2732 19.1365 18.4477C18.9372 18.6223 18.6813 18.7186 18.4163 18.7188H5.58352C5.31857 18.7186 5.06268 18.6223 4.86338 18.4477C4.66408 18.2732 4.53493 18.0322 4.49992 17.7695L3.41633 9.64454C3.39574 9.49011 3.40838 9.33307 3.45341 9.18393C3.49843 9.03478 3.57479 8.89698 3.67739 8.77973C3.77999 8.66249 3.90644 8.56852 4.0483 8.50411C4.19015 8.4397 4.34413 8.40634 4.49992 8.40626H7.41242L11.6468 3.56642C11.6908 3.51654 11.7449 3.47659 11.8055 3.44923C11.8661 3.42187 11.9319 3.40771 11.9984 3.40771C12.0649 3.40771 12.1306 3.42187 12.1912 3.44923C12.2518 3.47659 12.3059 3.51654 12.3499 3.56642L16.5843 8.41017H19.4999C19.6557 8.41025 19.8097 8.44361 19.9515 8.50802C20.0934 8.57243 20.2199 8.6664 20.3225 8.78364C20.4251 8.90088 20.5014 9.03869 20.5464 9.18783C20.5915 9.33698 20.6041 9.49402 20.5835 9.64845L20.5843 9.64454ZM8.65774 8.40626H15.3421L11.9999 4.58673L8.65774 8.40626ZM19.6171 9.39688C19.6025 9.38022 19.5844 9.36686 19.5642 9.3577C19.544 9.34854 19.5221 9.34379 19.4999 9.34376H4.49992C4.47761 9.34368 4.45553 9.34837 4.43518 9.35754C4.41483 9.3667 4.39668 9.38012 4.38195 9.39688C4.36714 9.41354 4.35606 9.43317 4.34945 9.45446C4.34285 9.47575 4.34088 9.49821 4.34367 9.52032L5.42649 17.6453C5.43162 17.683 5.45032 17.7175 5.47909 17.7424C5.50785 17.7673 5.5447 17.7808 5.58274 17.7805H18.4163C18.4544 17.7808 18.4912 17.7673 18.52 17.7424C18.5487 17.7175 18.5674 17.683 18.5726 17.6453L19.6562 9.52032C19.6592 9.49814 19.6573 9.47555 19.6506 9.4542C19.6438 9.43285 19.6324 9.41327 19.6171 9.39688ZM16.1718 10.9063C16.1105 10.9001 16.0487 10.9061 15.9897 10.9238C15.9308 10.9416 15.8759 10.9708 15.8283 11.0097C15.7806 11.0487 15.7411 11.0966 15.712 11.1509C15.6828 11.2051 15.6647 11.2645 15.6585 11.3258L15.221 15.7008C15.2142 15.7624 15.2197 15.8248 15.2371 15.8842C15.2546 15.9437 15.2837 15.9992 15.3227 16.0473C15.3617 16.0955 15.4099 16.1355 15.4644 16.1649C15.519 16.1943 15.5789 16.2126 15.6405 16.2188H15.6882C15.8048 16.2193 15.9175 16.1764 16.0041 16.0984C16.0908 16.0204 16.1453 15.9129 16.157 15.7969L16.5945 11.4219C16.6009 11.3602 16.5951 11.2979 16.5773 11.2385C16.5595 11.1791 16.5301 11.1238 16.4908 11.0758C16.4515 11.0279 16.403 10.9882 16.3483 10.9591C16.2935 10.93 16.2335 10.912 16.1718 10.9063ZM8.34133 11.3281C8.3289 11.2044 8.26784 11.0907 8.17158 11.0121C8.07532 10.9334 7.95175 10.8962 7.82805 10.9086C7.70435 10.921 7.59066 10.9821 7.51198 11.0784C7.4333 11.1746 7.39609 11.2982 7.40852 11.4219L7.84602 15.7969C7.85768 15.9129 7.91217 16.0204 7.99884 16.0984C8.08552 16.1764 8.19816 16.2193 8.31477 16.2188H8.36242C8.42367 16.2126 8.48311 16.1944 8.53734 16.1653C8.59158 16.1362 8.63954 16.0967 8.6785 16.049C8.71745 16.0013 8.74664 15.9465 8.76439 15.8875C8.78214 15.8286 8.78811 15.7667 8.78196 15.7055L8.34133 11.3281Z"/>
</mask>
<path d="M12.4687 11.375V15.75C12.4687 15.8743 12.4193 15.9936 12.3314 16.0815C12.2435 16.1694 12.1242 16.2188 11.9999 16.2188C11.8756 16.2188 11.7564 16.1694 11.6685 16.0815C11.5806 15.9936 11.5312 15.8743 11.5312 15.75V11.375C11.5312 11.2507 11.5806 11.1315 11.6685 11.0436C11.7564 10.9556 11.8756 10.9063 11.9999 10.9063C12.1242 10.9063 12.2435 10.9556 12.3314 11.0436C12.4193 11.1315 12.4687 11.2507 12.4687 11.375ZM20.5843 9.64454L19.4999 17.7695C19.4649 18.0322 19.3358 18.2732 19.1365 18.4477C18.9372 18.6223 18.6813 18.7186 18.4163 18.7188H5.58352C5.31857 18.7186 5.06268 18.6223 4.86338 18.4477C4.66408 18.2732 4.53493 18.0322 4.49992 17.7695L3.41633 9.64454C3.39574 9.49011 3.40838 9.33307 3.45341 9.18393C3.49843 9.03478 3.57479 8.89698 3.67739 8.77973C3.77999 8.66249 3.90644 8.56852 4.0483 8.50411C4.19015 8.4397 4.34413 8.40634 4.49992 8.40626H7.41242L11.6468 3.56642C11.6908 3.51654 11.7449 3.47659 11.8055 3.44923C11.8661 3.42187 11.9319 3.40771 11.9984 3.40771C12.0649 3.40771 12.1306 3.42187 12.1912 3.44923C12.2518 3.47659 12.3059 3.51654 12.3499 3.56642L16.5843 8.41017H19.4999C19.6557 8.41025 19.8097 8.44361 19.9515 8.50802C20.0934 8.57243 20.2199 8.6664 20.3225 8.78364C20.4251 8.90088 20.5014 9.03869 20.5464 9.18783C20.5915 9.33698 20.6041 9.49402 20.5835 9.64845L20.5843 9.64454ZM8.65774 8.40626H15.3421L11.9999 4.58673L8.65774 8.40626ZM19.6171 9.39688C19.6025 9.38022 19.5844 9.36686 19.5642 9.3577C19.544 9.34854 19.5221 9.34379 19.4999 9.34376H4.49992C4.47761 9.34368 4.45553 9.34837 4.43518 9.35754C4.41483 9.3667 4.39668 9.38012 4.38195 9.39688C4.36714 9.41354 4.35606 9.43317 4.34945 9.45446C4.34285 9.47575 4.34088 9.49821 4.34367 9.52032L5.42649 17.6453C5.43162 17.683 5.45032 17.7175 5.47909 17.7424C5.50785 17.7673 5.5447 17.7808 5.58274 17.7805H18.4163C18.4544 17.7808 18.4912 17.7673 18.52 17.7424C18.5487 17.7175 18.5674 17.683 18.5726 17.6453L19.6562 9.52032C19.6592 9.49814 19.6573 9.47555 19.6506 9.4542C19.6438 9.43285 19.6324 9.41327 19.6171 9.39688ZM16.1718 10.9063C16.1105 10.9001 16.0487 10.9061 15.9897 10.9238C15.9308 10.9416 15.8759 10.9708 15.8283 11.0097C15.7806 11.0487 15.7411 11.0966 15.712 11.1509C15.6828 11.2051 15.6647 11.2645 15.6585 11.3258L15.221 15.7008C15.2142 15.7624 15.2197 15.8248 15.2371 15.8842C15.2546 15.9437 15.2837 15.9992 15.3227 16.0473C15.3617 16.0955 15.4099 16.1355 15.4644 16.1649C15.519 16.1943 15.5789 16.2126 15.6405 16.2188H15.6882C15.8048 16.2193 15.9175 16.1764 16.0041 16.0984C16.0908 16.0204 16.1453 15.9129 16.157 15.7969L16.5945 11.4219C16.6009 11.3602 16.5951 11.2979 16.5773 11.2385C16.5595 11.1791 16.5301 11.1238 16.4908 11.0758C16.4515 11.0279 16.403 10.9882 16.3483 10.9591C16.2935 10.93 16.2335 10.912 16.1718 10.9063ZM8.34133 11.3281C8.3289 11.2044 8.26784 11.0907 8.17158 11.0121C8.07532 10.9334 7.95175 10.8962 7.82805 10.9086C7.70435 10.921 7.59066 10.9821 7.51198 11.0784C7.4333 11.1746 7.39609 11.2982 7.40852 11.4219L7.84602 15.7969C7.85768 15.9129 7.91217 16.0204 7.99884 16.0984C8.08552 16.1764 8.19816 16.2193 8.31477 16.2188H8.36242C8.42367 16.2126 8.48311 16.1944 8.53734 16.1653C8.59158 16.1362 8.63954 16.0967 8.6785 16.049C8.71745 16.0013 8.74664 15.9465 8.76439 15.8875C8.78214 15.8286 8.78811 15.7667 8.78196 15.7055L8.34133 11.3281Z" fill="white"/>
<path d="M20.5843 9.64454L21.5755 9.77683L19.6038 9.44825L20.5843 9.64454ZM19.4999 17.7695L18.5087 17.6373L18.5087 17.6374L19.4999 17.7695ZM18.4163 18.7188V19.7188H18.4168L18.4163 18.7188ZM5.58352 18.7188L5.583 19.7188H5.58352V18.7188ZM4.49992 17.7695L5.49115 17.6374L5.49115 17.6373L4.49992 17.7695ZM3.41633 9.64454L2.4251 9.77668L2.42511 9.77674L3.41633 9.64454ZM4.49992 8.40626V7.40626L4.49941 7.40626L4.49992 8.40626ZM7.41242 8.40626V9.40626H7.86623L8.16504 9.06472L7.41242 8.40626ZM11.6468 3.56642L10.8968 2.90497L10.8942 2.90795L11.6468 3.56642ZM12.3499 3.56642L13.1028 2.90825L13.0999 2.90498L12.3499 3.56642ZM16.5843 8.41017L15.8314 9.06833L16.1303 9.41017H16.5843V8.41017ZM19.4999 8.41017L19.5004 7.41017H19.4999V8.41017ZM20.5835 9.64845L19.5923 9.5163L21.5641 9.84474L20.5835 9.64845ZM8.65774 8.40626L7.90517 7.74774L6.45393 9.40626H8.65774V8.40626ZM15.3421 8.40626V9.40626H17.5459L16.0947 7.74774L15.3421 8.40626ZM11.9999 4.58673L12.7525 3.92821L11.9999 3.06816L11.2474 3.92821L11.9999 4.58673ZM19.6171 9.39688L18.8658 10.0569L18.8756 10.0679L18.8856 10.0787L19.6171 9.39688ZM19.4999 9.34376L19.5012 8.34376H19.4999V9.34376ZM4.49992 9.34376L4.4962 10.3438H4.49992V9.34376ZM4.38195 9.39688L5.12909 10.0616L5.13323 10.0569L4.38195 9.39688ZM4.34367 9.52032L3.35153 9.64563L3.35244 9.65242L4.34367 9.52032ZM5.42649 17.6453L4.43525 17.7774L4.43564 17.7803L5.42649 17.6453ZM5.58274 17.7805V16.7804L5.57359 16.7805L5.58274 17.7805ZM18.4163 17.7805L18.4255 16.7805H18.4163V17.7805ZM18.5726 17.6453L19.5634 17.7803L19.5638 17.7775L18.5726 17.6453ZM19.6562 9.52032L18.6656 9.38348L18.665 9.38813L19.6562 9.52032ZM16.1718 10.9063L16.0718 11.9013L16.0789 11.9019L16.1718 10.9063ZM15.6585 11.3258L14.6635 11.2258L14.6635 11.2263L15.6585 11.3258ZM15.221 15.7008L16.215 15.8107L16.2161 15.8003L15.221 15.7008ZM15.6405 16.2188L15.5416 17.2139L15.591 17.2188H15.6405V16.2188ZM15.6882 16.2188L15.6932 15.2188H15.6882V16.2188ZM16.157 15.7969L17.1519 15.8969L17.152 15.8964L16.157 15.7969ZM16.5945 11.4219L15.5999 11.3176L15.5994 11.3224L16.5945 11.4219ZM8.34133 11.3281L7.34634 11.4281L7.34636 11.4283L8.34133 11.3281ZM7.40852 11.4219L8.40356 11.3224L8.40351 11.3219L7.40852 11.4219ZM7.84602 15.7969L6.85098 15.8964L6.85103 15.8969L7.84602 15.7969ZM8.31477 16.2188V15.2187L8.30976 15.2188L8.31477 16.2188ZM8.36242 16.2188V17.2188H8.41254L8.46241 17.2137L8.36242 16.2188ZM8.78196 15.7055L9.77694 15.6055L9.77693 15.6053L8.78196 15.7055ZM11.4687 11.375V15.75H13.4687V11.375H11.4687ZM11.4687 15.75C11.4687 15.6091 11.5246 15.474 11.6243 15.3744L13.0385 16.7886C13.3139 16.5131 13.4687 16.1395 13.4687 15.75H11.4687ZM11.6243 15.3744C11.7239 15.2747 11.859 15.2188 11.9999 15.2188V17.2188C12.3895 17.2188 12.763 17.064 13.0385 16.7886L11.6243 15.3744ZM11.9999 15.2188C12.1408 15.2188 12.2759 15.2747 12.3756 15.3744L10.9614 16.7886C11.2368 17.064 11.6104 17.2188 11.9999 17.2188V15.2188ZM12.3756 15.3744C12.4752 15.474 12.5312 15.6091 12.5312 15.75H10.5312C10.5312 16.1395 10.6859 16.5131 10.9614 16.7886L12.3756 15.3744ZM12.5312 15.75V11.375H10.5312V15.75H12.5312ZM12.5312 11.375C12.5312 11.5159 12.4752 11.651 12.3756 11.7507L10.9614 10.3364C10.6859 10.6119 10.5312 10.9855 10.5312 11.375H12.5312ZM12.3756 11.7507C12.276 11.8503 12.1408 11.9063 11.9999 11.9063V9.90626C11.6104 9.90626 11.2368 10.061 10.9614 10.3364L12.3756 11.7507ZM11.9999 11.9063C11.859 11.9063 11.7239 11.8503 11.6243 11.7507L13.0385 10.3364C12.763 10.061 12.3895 9.90626 11.9999 9.90626V11.9063ZM11.6243 11.7507C11.5246 11.651 11.4687 11.5159 11.4687 11.375H13.4687C13.4687 10.9855 13.3139 10.6119 13.0385 10.3364L11.6243 11.7507ZM19.5931 9.51225L18.5087 17.6373L20.4911 17.9018L21.5755 9.77683L19.5931 9.51225ZM18.5087 17.6374C18.5057 17.6599 18.4946 17.6806 18.4775 17.6955L19.7954 19.1999C20.1769 18.8657 20.4241 18.4044 20.4912 17.9017L18.5087 17.6374ZM18.4775 17.6955C18.4605 17.7105 18.4385 17.7187 18.4158 17.7188L18.4168 19.7188C18.924 19.7185 19.4139 19.5341 19.7954 19.1999L18.4775 17.6955ZM18.4163 17.7188H5.58352V19.7188H18.4163V17.7188ZM5.58403 17.7188C5.56132 17.7187 5.53939 17.7105 5.52231 17.6955L4.20445 19.1999C4.58596 19.5341 5.07581 19.7185 5.583 19.7188L5.58403 17.7188ZM5.52231 17.6955C5.50522 17.6806 5.49416 17.6599 5.49115 17.6374L3.50869 17.9017C3.57571 18.4044 3.82294 18.8657 4.20445 19.1999L5.52231 17.6955ZM5.49115 17.6373L4.40755 9.51235L2.42511 9.77674L3.5087 17.9017L5.49115 17.6373ZM4.40756 9.5124C4.4058 9.49916 4.40688 9.4857 4.41074 9.47292L2.49607 8.89494C2.40989 9.18044 2.38569 9.48107 2.4251 9.77668L4.40756 9.5124ZM4.41074 9.47292C4.4146 9.46013 4.42114 9.44832 4.42994 9.43827L2.92484 8.1212C2.72845 8.34563 2.58226 8.60943 2.49607 8.89494L4.41074 9.47292ZM4.42994 9.43827C4.43873 9.42822 4.44957 9.42017 4.46173 9.41465L3.63487 7.59358C3.36331 7.71688 3.12124 7.89676 2.92484 8.1212L4.42994 9.43827ZM4.46173 9.41465C4.47389 9.40913 4.48709 9.40627 4.50044 9.40626L4.49941 7.40626C4.20118 7.40641 3.90642 7.47028 3.63487 7.59358L4.46173 9.41465ZM4.49992 9.40626H7.41242V7.40626H4.49992V9.40626ZM8.16504 9.06472L12.3994 4.22488L10.8942 2.90795L6.65981 7.7478L8.16504 9.06472ZM12.3968 4.22785C12.3469 4.28438 12.2856 4.32966 12.2169 4.36067L11.3941 2.53779C11.2041 2.62353 11.0346 2.74869 10.8968 2.90498L12.3968 4.22785ZM12.2169 4.36067C12.1482 4.39168 12.0737 4.40771 11.9984 4.40771V2.40771C11.79 2.40771 11.584 2.45205 11.3941 2.53779L12.2169 4.36067ZM11.9984 4.40771C11.923 4.40771 11.8485 4.39168 11.7798 4.36067L12.6027 2.53779C12.4127 2.45206 12.2067 2.40771 11.9984 2.40771V4.40771ZM11.7798 4.36067C11.7111 4.32966 11.6498 4.28438 11.5999 4.22785L13.0999 2.90498C12.9621 2.74869 12.7926 2.62353 12.6027 2.53779L11.7798 4.36067ZM11.597 4.22458L15.8314 9.06833L17.3372 7.75201L13.1028 2.90826L11.597 4.22458ZM16.5843 9.41017H19.4999V7.41017H16.5843V9.41017ZM19.4994 9.41017C19.5128 9.41017 19.526 9.41303 19.5381 9.41855L20.365 7.59748C20.0934 7.47418 19.7987 7.41032 19.5004 7.41017L19.4994 9.41017ZM19.5381 9.41855C19.5503 9.42407 19.5611 9.43213 19.5699 9.44218L21.075 8.1251C20.8786 7.90067 20.6365 7.72078 20.365 7.59748L19.5381 9.41855ZM19.5699 9.44218C19.5787 9.45223 19.5853 9.46404 19.5891 9.47682L21.5038 8.89884C21.4176 8.61334 21.2714 8.34953 21.075 8.1251L19.5699 9.44218ZM19.5891 9.47682C19.593 9.48961 19.5941 9.50307 19.5923 9.5163L21.5747 9.78059C21.6142 9.48497 21.59 9.18435 21.5038 8.89884L19.5891 9.47682ZM21.5641 9.84474L21.5648 9.84083L19.6038 9.44825L19.603 9.45216L21.5641 9.84474ZM8.65774 9.40626H15.3421V7.40626H8.65774V9.40626ZM16.0947 7.74774L12.7525 3.92821L11.2474 5.24524L14.5895 9.06477L16.0947 7.74774ZM11.2474 3.92821L7.90517 7.74774L9.4103 9.06477L12.7525 5.24524L11.2474 3.92821ZM20.3684 8.73689C20.26 8.61356 20.1267 8.51471 19.9771 8.44692L19.1514 10.2685C19.0422 10.219 18.9449 10.1469 18.8658 10.0569L20.3684 8.73689ZM19.9771 8.44692C19.8276 8.37914 19.6654 8.34397 19.5012 8.34376L19.4987 10.3438C19.3789 10.3436 19.2605 10.3179 19.1514 10.2685L19.9771 8.44692ZM19.4999 8.34376H4.49992V10.3438H19.4999V8.34376ZM4.50365 8.34377C4.33849 8.34315 4.17513 8.37793 4.02457 8.44573L4.8458 10.2693C4.73593 10.3188 4.61672 10.3442 4.4962 10.3438L4.50365 8.34377ZM4.02457 8.44573C3.87399 8.51354 3.73968 8.61282 3.63068 8.73689L5.13323 10.0569C5.05369 10.1474 4.95568 10.2199 4.8458 10.2693L4.02457 8.44573ZM3.63484 8.73219C3.5252 8.85542 3.44319 9.00069 3.39433 9.15825L5.30458 9.75067C5.26892 9.86565 5.20907 9.97165 5.12907 10.0616L3.63484 8.73219ZM3.39433 9.15825C3.34547 9.3158 3.33089 9.48198 3.35156 9.64563L5.33579 9.39501C5.35087 9.51443 5.34023 9.6357 5.30458 9.75067L3.39433 9.15825ZM3.35244 9.65242L4.43525 17.7774L6.41772 17.5132L5.33491 9.38822L3.35244 9.65242ZM4.43564 17.7803C4.47362 18.0591 4.61201 18.3146 4.82488 18.4987L6.1333 16.9861C6.28863 17.1205 6.38962 17.3069 6.41734 17.5104L4.43564 17.7803ZM4.82488 18.4987C5.03774 18.6828 5.31045 18.783 5.59189 18.7804L5.57359 16.7805C5.77896 16.7786 5.97796 16.8517 6.1333 16.9861L4.82488 18.4987ZM5.58274 18.7805H18.4163V16.7805H5.58274V18.7805ZM18.4072 18.7804C18.6886 18.783 18.9613 18.6828 19.1742 18.4987L17.8658 16.9861C18.0211 16.8517 18.2201 16.7786 18.4255 16.7805L18.4072 18.7804ZM19.1742 18.4987C19.387 18.3146 19.5254 18.0592 19.5634 17.7803L17.5817 17.5104C17.6094 17.3069 17.7104 17.1205 17.8658 16.9861L19.1742 18.4987ZM19.5638 17.7775L20.6474 9.65252L18.665 9.38813L17.5814 17.5131L19.5638 17.7775ZM20.6468 9.65716C20.6702 9.48786 20.6555 9.31546 20.604 9.15249L18.6972 9.75591C18.6591 9.63564 18.6483 9.50842 18.6656 9.38348L20.6468 9.65716ZM20.604 9.15249C20.5524 8.98951 20.4652 8.84009 20.3486 8.71507L18.8856 10.0787C18.7996 9.98644 18.7352 9.87618 18.6972 9.75591L20.604 9.15249ZM16.2718 9.91127C16.0799 9.89198 15.8861 9.91068 15.7014 9.9663L16.2781 11.8813C16.2113 11.9015 16.1412 11.9082 16.0718 11.9012L16.2718 9.91127ZM15.7014 9.9663C15.5167 10.0219 15.3448 10.1134 15.1954 10.2354L16.4611 11.784C16.4071 11.8281 16.3449 11.8612 16.2781 11.8813L15.7014 9.9663ZM15.1954 10.2354C15.0461 10.3575 14.9222 10.5078 14.831 10.6777L16.5929 11.624C16.5599 11.6855 16.5151 11.7398 16.4611 11.784L15.1954 10.2354ZM14.831 10.6777C14.7397 10.8477 14.6828 11.0339 14.6635 11.2258L16.6535 11.4258C16.6465 11.4952 16.626 11.5625 16.5929 11.624L14.831 10.6777ZM14.6635 11.2263L14.226 15.6013L16.2161 15.8003L16.6536 11.4253L14.6635 11.2263ZM14.2271 15.5909C14.2057 15.784 14.2229 15.9793 14.2776 16.1657L16.1967 15.6028C16.2165 15.6702 16.2227 15.7409 16.215 15.8107L14.2271 15.5909ZM14.2776 16.1657C14.3322 16.3521 14.4233 16.5258 14.5456 16.6767L16.0998 15.4179C16.144 15.4725 16.1769 15.5354 16.1967 15.6028L14.2776 16.1657ZM14.5456 16.6767C14.6679 16.8277 14.8188 16.9529 14.9898 17.0451L15.9391 15.2847C16.0009 15.3181 16.0555 15.3633 16.0998 15.4179L14.5456 16.6767ZM14.9898 17.0451C15.1608 17.1373 15.3483 17.1946 15.5416 17.2139L15.7395 15.2237C15.8094 15.2306 15.8772 15.2514 15.9391 15.2847L14.9898 17.0451ZM15.6405 17.2188H15.6882V15.2188H15.6405V17.2188ZM15.6832 17.2187C16.0486 17.2206 16.4015 17.0862 16.6731 16.8417L15.3352 15.3551C15.4334 15.2667 15.5611 15.2181 15.6932 15.2188L15.6832 17.2187ZM16.6731 16.8417C16.9447 16.5973 17.1154 16.2604 17.1519 15.8969L15.162 15.6969C15.1752 15.5654 15.2369 15.4435 15.3352 15.3551L16.6731 16.8417ZM17.152 15.8964L17.5895 11.5214L15.5994 11.3224L15.1619 15.6974L17.152 15.8964ZM17.589 11.5262C17.6093 11.333 17.591 11.1376 17.5352 10.9515L15.6194 11.5254C15.5992 11.4581 15.5926 11.3875 15.5999 11.3176L17.589 11.5262ZM17.5352 10.9515C17.4795 10.7654 17.3873 10.5922 17.2642 10.4419L15.7174 11.7098C15.6728 11.6554 15.6395 11.5928 15.6194 11.5254L17.5352 10.9515ZM17.2642 10.4419C17.141 10.2916 16.9892 10.1673 16.8177 10.0761L15.8789 11.8421C15.8169 11.8091 15.762 11.7641 15.7174 11.7098L17.2642 10.4419ZM16.8177 10.0761C16.6461 9.98488 16.4581 9.92863 16.2647 9.91058L16.0789 11.9019C16.0089 11.8954 15.941 11.8751 15.8789 11.8421L16.8177 10.0761ZM9.33632 11.2281C9.29736 10.8406 9.10604 10.4843 8.80443 10.2378L7.53872 11.7863C7.42963 11.6972 7.36043 11.5683 7.34634 11.4281L9.33632 11.2281ZM8.80443 10.2378C8.50282 9.99127 8.11564 9.87466 7.72805 9.91362L7.92805 11.9036C7.78786 11.9177 7.64781 11.8755 7.53872 11.7863L8.80443 10.2378ZM7.72805 9.91362C7.34046 9.95257 6.98423 10.1439 6.73771 10.4455L8.28625 11.7112C8.19709 11.8203 8.06824 11.8895 7.92805 11.9036L7.72805 9.91362ZM6.73771 10.4455C6.49118 10.7471 6.37458 11.1343 6.41353 11.5219L8.40351 11.3219C8.41759 11.4621 8.37542 11.6021 8.28625 11.7112L6.73771 10.4455ZM6.41348 11.5214L6.85098 15.8964L8.84105 15.6974L8.40355 11.3224L6.41348 11.5214ZM6.85103 15.8969C6.88756 16.2604 7.05829 16.5973 7.32988 16.8417L8.66781 15.3551C8.76604 15.4436 8.82779 15.5654 8.84101 15.6969L6.85103 15.8969ZM7.32988 16.8417C7.60146 17.0862 7.9544 17.2206 8.31978 17.2187L8.30976 15.2188C8.44191 15.2181 8.56957 15.2667 8.66781 15.3551L7.32988 16.8417ZM8.31477 17.2188H8.36242V15.2188H8.31477V17.2188ZM8.46241 17.2137C8.65433 17.1945 8.84057 17.1376 9.01049 17.0463L8.0642 15.2843C8.12566 15.2513 8.19302 15.2307 8.26244 15.2238L8.46241 17.2137ZM9.01049 17.0463C9.18041 16.955 9.3307 16.8312 9.45277 16.6819L7.90422 15.4162C7.94838 15.3621 8.00274 15.3173 8.0642 15.2843L9.01049 17.0463ZM9.45277 16.6819C9.57484 16.5325 9.66629 16.3606 9.72191 16.1759L7.80687 15.5992C7.82699 15.5324 7.86007 15.4702 7.90422 15.4162L9.45277 16.6819ZM9.72191 16.1759C9.77753 15.9912 9.79623 15.7974 9.77694 15.6055L7.78697 15.8055C7.77999 15.7361 7.78676 15.666 7.80687 15.5992L9.72191 16.1759ZM9.77693 15.6053L9.3363 11.228L7.34636 11.4283L7.78698 15.8056L9.77693 15.6053Z" fill="white" mask="url(#path-1-inside-1_8_891)"/>
</svg>
